<svg width="246" height="246" viewBox="0 0 246 246" fill="none" xmlns="http://www.w3.org/2000/svg">
<rect width="246" height="246" rx="123" fill="white"/>
<path d="M48 169V75.9091H73.2727V148.636H110.909V169H48ZM159.307 170.273C151.792 170.273 145.08 169.106 139.17 166.773C133.292 164.439 128.655 161.273 125.261 157.273C121.898 153.273 120.216 148.758 120.216 143.727C120.216 139.879 121.17 136.364 123.08 133.182C125.019 130 127.625 127.364 130.898 125.273C134.17 123.152 137.822 121.788 141.852 121.182V120.455C136.549 119.545 132.186 117.197 128.761 113.409C125.367 109.591 123.67 105.091 123.67 99.9091C123.67 95.0303 125.216 90.697 128.307 86.9091C131.398 83.0909 135.625 80.0909 140.989 77.9091C146.352 75.7273 152.458 74.6364 159.307 74.6364C166.155 74.6364 172.261 75.7424 177.625 77.9545C182.989 80.1364 187.216 83.1364 190.307 86.9545C193.398 90.7424 194.943 95.0606 194.943 99.9091C194.943 105.121 193.216 109.621 189.761 113.409C186.307 117.197 181.973 119.545 176.761 120.455V121.182C180.761 121.788 184.398 123.152 187.67 125.273C190.943 127.364 193.549 130 195.489 133.182C197.428 136.364 198.398 139.879 198.398 143.727C198.398 148.758 196.701 153.273 193.307 157.273C189.943 161.273 185.307 164.439 179.398 166.773C173.519 169.106 166.822 170.273 159.307 170.273ZM159.307 152.818C161.701 152.818 163.822 152.333 165.67 151.364C167.519 150.394 168.973 149.061 170.034 147.364C171.125 145.636 171.67 143.697 171.67 141.545C171.67 139.394 171.125 137.485 170.034 135.818C168.973 134.152 167.519 132.848 165.67 131.909C163.822 130.939 161.701 130.455 159.307 130.455C156.943 130.455 154.822 130.939 152.943 131.909C151.095 132.848 149.625 134.152 148.534 135.818C147.473 137.485 146.943 139.394 146.943 141.545C146.943 143.697 147.473 145.621 148.534 147.318C149.625 149.015 151.095 150.364 152.943 151.364C154.822 152.333 156.943 152.818 159.307 152.818ZM159.307 113C161.428 113 163.307 112.561 164.943 111.682C166.58 110.803 167.867 109.591 168.807 108.045C169.746 106.5 170.216 104.758 170.216 102.818C170.216 100.879 169.746 99.1667 168.807 97.6818C167.867 96.1667 166.58 94.9848 164.943 94.1364C163.307 93.2576 161.428 92.8182 159.307 92.8182C157.216 92.8182 155.337 93.2576 153.67 94.1364C152.034 94.9848 150.746 96.1667 149.807 97.6818C148.867 99.1667 148.398 100.879 148.398 102.818C148.398 104.758 148.867 106.5 149.807 108.045C150.746 109.561 152.034 110.773 153.67 111.682C155.337 112.561 157.216 113 159.307 113Z" fill="url(#paint0_linear_13_5)"/>
<defs>
<linearGradient id="paint0_linear_13_5" x1="91" y1="111.5" x2="172.5" y2="156" gradientUnits="userSpaceOnUse">
<stop stop-color="#00B08A"/>
<stop offset="1" stop-color="#004BAD"/>
</linearGradient>
</defs>
</svg>
